<svg xmlns="http://www.w3.org/2000/svg" viewBox="0 0 700 700"><path id="svg_2" d="m461.5,496.99872c-4.625,0 -9.125,-1.1 -12.22,-5.656l-323.78,-382.644l0,372.3c0,8.844 -7.156,15.1 -16,15.1s-16,-6.3 -16,-15.1l0,-415.99c0,-6.719 4.188,-12.72 10.5,-15.03c6.25,-2.312 13.41,-0.4375 17.72,4.687l323.78,382.633l0,-372.29c0,-8.844 7.156,-15.1 16,-15.1s16,6.26 16,15.1l0,415.1c0,6.719 -4.188,12.72 -10.5,15.03c-1.8,1.56 -3.7,1.86 -5.5,1.86z"/><path d="m382.5,650.99957l-144,0c-8.844,0 -16,-7.2 -16,-16l0,-416c0,-8.84 7.156,-16 16,-16l144,0.01c123.5,0 224,100.5 224,223.1s-100.5,224.89 -224,224.89zm-128,-32l128,0c105.9,0 192,-86.13 192,-192s-86.13,-192 -192,-192l-128,0l0,384z"/></svg>